<svg width="18" height="14" viewBox="0 0 18 14" fill="none" xmlns="http://www.w3.org/2000/svg">
<path fill-rule="evenodd" clip-rule="evenodd" d="M0.558224 7.44211L6.55806 13.4419C6.80214 13.686 7.19786 13.686 7.44194 13.4419C7.68602 13.1979 7.68602 12.8021 7.44194 12.5581L2.50888 7.625H17C17.3452 7.625 17.625 7.34518 17.625 7C17.625 6.65482 17.3452 6.375 17 6.375H2.50888L7.44194 1.44194C7.68602 1.19786 7.68602 0.802136 7.44194 0.558058C7.19786 0.313981 6.80214 0.313981 6.55806 0.558058L0.558224 6.55789C0.558167 6.55795 0.55811 6.55801 0.558053 6.55806C0.498133 6.61799 0.452923 6.68705 0.422424 6.76076C0.391866 6.83445 0.375 6.91526 0.375 7C0.375 7.15995 0.436019 7.3199 0.558058 7.44194L0.558224 7.44211Z" fill="#E01E69"/>
</svg>
